# xmcd
#
# Track frame offsets: 
#        150
#        18339
#        37650
#        55284
#        74076
#        89279
#        111598
#        132649
#        148449
#        171461
#        189409
#
# Disc length: 2763 seconds
#
# Revision: 0
# Processed by: cddbd v1.5.2PL0 Copyright (c) Steve Scherf et al.
# Submitted via: ExactAudioCopy v0.95b4
#
DISCID=ab0ac90b
DTITLE=Corinne Bailey Rae - Corinne Bailey Rae
DYEAR=2006
DGENRE=Soul
TTITLE0=Like a star
TTITLE1=Breathless
TTITLE2=Butterfly
TTITLE3=I'd like to
TTITLE4=Put your records on
TTITLE5=Seasons change
TTITLE6=Till it happens to you
TTITLE7=Trouble sleeping
TTITLE8=Call me when you get this
TTITLE9=Choux pastry heart
TTITLE10=Enchantment
EXTD=
EXTT0=Like a star
EXTT1=
EXTT2=
EXTT3=
EXTT4=
EXTT5=
EXTT6=
EXTT7=
EXTT8=
EXTT9=
EXTT10=
PLAYORDER=
